<?xml version="1.0" encoding="UTF-8" standalone="no"?><!DOCTYPE svg PUBLIC "-//W3C//DTD SVG 1.1//EN" "http://www.w3.org/Graphics/SVG/1.1/DTD/svg11.dtd"><!-- Generated by graphviz version 2.40.1 (20161225.0304)
 --><!-- Title: IsZero Pages: 1 --><svg xmlns="http://www.w3.org/2000/svg" xmlns:xlink="http://www.w3.org/1999/xlink" width="1209pt" height="154pt" viewBox="0.00 0.00 1208.65 154.00">
<g id="graph0" class="graph" transform="scale(1 1) rotate(0) translate(4 150)">
<title>IsZero</title>
<polygon fill="#f1f4f9" stroke="transparent" points="-4,4 -4,-150 1204.6486,-150 1204.6486,4 -4,4"/>
<!-- &lt;&lt;expr&gt;&gt;
%utils_switch -->
<g id="node1" class="node">
<title>&lt;&lt;expr&gt;&gt;
%utils_switch</title>
<path fill="#d1d1d1" stroke="#a0a0a0" stroke-width="2" d="M220.0773,-141.3433C220.0773,-141.3433 166.1966,-118.6567 166.1966,-118.6567 160.6668,-116.3283 160.6668,-111.6717 166.1966,-109.3433 166.1966,-109.3433 220.0773,-86.6567 220.0773,-86.6567 225.6072,-84.3283 236.6668,-84.3283 242.1966,-86.6567 242.1966,-86.6567 296.0773,-109.3433 296.0773,-109.3433 301.6072,-111.6717 301.6072,-116.3283 296.0773,-118.6567 296.0773,-118.6567 242.1966,-141.3433 242.1966,-141.3433 236.6668,-143.6717 225.6072,-143.6717 220.0773,-141.3433"/>
<text text-anchor="middle" x="231.137" y="-117" font-family="Helvetica,sans-Serif" font-size="10.00" fill="#333333">&lt;&lt;expr&gt;&gt;</text>
<text text-anchor="middle" x="231.137" y="-105" font-family="Helvetica,sans-Serif" font-size="10.00" fill="#333333">%utils_switch</text>
</g>
<!-- &lt;&lt;inter&gt;&gt;
%inv -->
<g id="node6" class="node">
<title>&lt;&lt;inter&gt;&gt;
%inv</title>
<ellipse fill="#f8d9eb" stroke="#d89db8" stroke-width="2" cx="415.5766" cy="-109" rx="43.5873" ry="22.7556"/>
<text text-anchor="middle" x="415.5766" y="-112" font-family="Helvetica,sans-Serif" font-size="10.00" fill="#5a5a5a">&lt;&lt;inter&gt;&gt;</text>
<text text-anchor="middle" x="415.5766" y="-100" font-family="Helvetica,sans-Serif" font-size="10.00" fill="#5a5a5a">%inv</text>
</g>
<!-- &lt;&lt;expr&gt;&gt;
%utils_switch&#45;&gt;&lt;&lt;inter&gt;&gt;
%inv -->
<g id="edge8" class="edge">
<title>&lt;&lt;expr&gt;&gt;
%utils_switch-&gt;&lt;&lt;inter&gt;&gt;
%inv</title>
<path fill="none" stroke="#006400" stroke-width="1.5" d="M302.7101,-112.0597C321.7152,-111.5445 341.9535,-110.9959 359.967,-110.5075"/>
<polygon fill="#006400" stroke="#006400" stroke-width="1.5" points="372.0399,-110.1802 360.1907,-115.9035 366.0489,-110.5928 360.0511,-110.7554 360.0443,-110.5055 360.0375,-110.2556 366.0353,-110.093 359.8979,-105.1075 372.0399,-110.1802 372.0399,-110.1802"/>
<text text-anchor="middle" x="339.585" y="-114" font-family="Helvetica,sans-Serif" font-size="10.00" fill="#000000">assign</text>
</g>
<!-- &lt;&lt;expr&gt;&gt;
%add -->
<g id="node2" class="node">
<title>&lt;&lt;expr&gt;&gt;
%add</title>
<path fill="#d1d1d1" stroke="#a0a0a0" stroke-width="2" d="M574.947,-110.4727C574.947,-110.4727 534.5853,-89.5273 534.5853,-89.5273 529.2597,-86.7637 529.2597,-81.2363 534.5853,-78.4727 534.5853,-78.4727 574.947,-57.5273 574.947,-57.5273 580.2726,-54.7637 590.9238,-54.7637 596.2495,-57.5273 596.2495,-57.5273 636.6111,-78.4727 636.6111,-78.4727 641.9367,-81.2363 641.9367,-86.7637 636.6111,-89.5273 636.6111,-89.5273 596.2495,-110.4727 596.2495,-110.4727 590.9238,-113.2363 580.2726,-113.2363 574.947,-110.4727"/>
<text text-anchor="middle" x="585.5982" y="-87" font-family="Helvetica,sans-Serif" font-size="10.00" fill="#333333">&lt;&lt;expr&gt;&gt;</text>
<text text-anchor="middle" x="585.5982" y="-75" font-family="Helvetica,sans-Serif" font-size="10.00" fill="#333333">%add</text>
</g>
<!-- &lt;&lt;output&gt;&gt;
%out -->
<g id="node4" class="node">
<title>&lt;&lt;output&gt;&gt;
%out</title>
<ellipse fill="#b0e4d5" stroke="#7fb4a0" stroke-width="2" cx="775.9695" cy="-67" rx="49.3946" ry="22.7556"/>
<text text-anchor="middle" x="775.9695" y="-70" font-family="Helvetica,sans-Serif" font-size="10.00" fill="#000000">&lt;&lt;output&gt;&gt;</text>
<text text-anchor="middle" x="775.9695" y="-58" font-family="Helvetica,sans-Serif" font-size="10.00" fill="#000000">%out</text>
</g>
<!-- &lt;&lt;expr&gt;&gt;
%add&#45;&gt;&lt;&lt;output&gt;&gt;
%out -->
<g id="edge2" class="edge">
<title>&lt;&lt;expr&gt;&gt;
%add-&gt;&lt;&lt;output&gt;&gt;
%out</title>
<path fill="none" stroke="#006400" stroke-width="1.5" d="M638.3744,-79.2871C662.1903,-77.1604 690.4586,-74.6361 715.1593,-72.4303"/>
<polygon fill="#006400" stroke="#006400" stroke-width="1.5" points="727.3346,-71.3431 715.8625,-77.7891 721.3806,-72.1258 715.4044,-72.6595 715.3822,-72.4105 715.3599,-72.1615 721.3362,-71.6278 714.9018,-67.0319 727.3346,-71.3431 727.3346,-71.3431"/>
<text text-anchor="middle" x="686.8512" y="-79" font-family="Helvetica,sans-Serif" font-size="10.00" fill="#000000">assign</text>
</g>
<!-- &lt;&lt;expr&gt;&gt;
%mul6 -->
<g id="node3" class="node">
<title>&lt;&lt;expr&gt;&gt;
%mul6</title>
<path fill="#d1d1d1" stroke="#a0a0a0" stroke-width="2" d="M941.2436,-58.4727C941.2436,-58.4727 900.8819,-37.5273 900.8819,-37.5273 895.5563,-34.7637 895.5563,-29.2363 900.8819,-26.4727 900.8819,-26.4727 941.2436,-5.5273 941.2436,-5.5273 946.5692,-2.7637 957.2204,-2.7637 962.546,-5.5273 962.546,-5.5273 1002.9077,-26.4727 1002.9077,-26.4727 1008.2333,-29.2363 1008.2333,-34.7637 1002.9077,-37.5273 1002.9077,-37.5273 962.546,-58.4727 962.546,-58.4727 957.2204,-61.2363 946.5692,-61.2363 941.2436,-58.4727"/>
<text text-anchor="middle" x="951.8948" y="-35" font-family="Helvetica,sans-Serif" font-size="10.00" fill="#333333">&lt;&lt;expr&gt;&gt;</text>
<text text-anchor="middle" x="951.8948" y="-23" font-family="Helvetica,sans-Serif" font-size="10.00" fill="#333333">%mul6</text>
</g>
<!-- &lt;&lt;const&gt;&gt;
0 -->
<g id="node5" class="node">
<title>&lt;&lt;const&gt;&gt;
0</title>
<path fill="#252525" stroke="#555555" stroke-width="2" d="M1191.9739,-40.3795C1191.9739,-40.3795 1182.2384,-49.8769 1182.2384,-49.8769 1177.9435,-54.0666 1167.6487,-58.2564 1161.6487,-58.2564 1161.6487,-58.2564 1131.8187,-58.2564 1131.8187,-58.2564 1125.8187,-58.2564 1115.5239,-54.0666 1111.229,-49.8769 1111.229,-49.8769 1101.4935,-40.3795 1101.4935,-40.3795 1097.1986,-36.1898 1097.1986,-27.8102 1101.4935,-23.6205 1101.4935,-23.6205 1111.229,-14.1231 1111.229,-14.1231 1115.5239,-9.9334 1125.8187,-5.7436 1131.8187,-5.7436 1131.8187,-5.7436 1161.6487,-5.7436 1161.6487,-5.7436 1167.6487,-5.7436 1177.9435,-9.9334 1182.2384,-14.1231 1182.2384,-14.1231 1191.9739,-23.6205 1191.9739,-23.6205 1196.2688,-27.8102 1196.2688,-36.1898 1191.9739,-40.3795"/>
<text text-anchor="middle" x="1146.7337" y="-35" font-family="Helvetica,sans-Serif" font-size="10.00" fill="#f8f8f8">&lt;&lt;const&gt;&gt;</text>
<text text-anchor="middle" x="1146.7337" y="-23" font-family="Helvetica,sans-Serif" font-size="10.00" fill="#f8f8f8">0</text>
</g>
<!-- &lt;&lt;expr&gt;&gt;
%mul6&#45;&gt;&lt;&lt;const&gt;&gt;
0 -->
<g id="edge4" class="edge">
<title>&lt;&lt;expr&gt;&gt;
%mul6-&gt;&lt;&lt;const&gt;&gt;
0</title>
<path fill="none" stroke="#000000" stroke-width="1.5" stroke-dasharray="5,2" d="M1013.543,-30C1038.9622,-30 1068.1546,-30 1092.7189,-30"/>
<path fill="none" stroke="transparent" stroke-width="1.5" stroke-dasharray="5,2" d="M1013.543,-32C1038.9622,-32 1068.1546,-32 1092.7189,-32"/>
<path fill="none" stroke="#000000" stroke-width="1.5" stroke-dasharray="5,2" d="M1013.543,-34C1038.9622,-34 1068.1546,-34 1092.7189,-34"/>
<text text-anchor="middle" x="1053.1478" y="-35" font-family="Helvetica,sans-Serif" font-size="10.00" fill="#000000">constraint</text>
</g>
<!-- &lt;&lt;output&gt;&gt;
%out&#45;&gt;&lt;&lt;expr&gt;&gt;
%add -->
<g id="edge5" class="edge">
<title>&lt;&lt;output&gt;&gt;
%out-&gt;&lt;&lt;expr&gt;&gt;
%add</title>
<path fill="none" stroke="#000000" stroke-width="1.5" stroke-dasharray="5,2" d="M730.4943,-59.7428C710.4831,-56.9615 686.4918,-55.4587 665.5059,-58.9733 650.5156,-61.4277 634.2488,-66.4895 620.519,-71.525"/>
<path fill="none" stroke="transparent" stroke-width="1.5" stroke-dasharray="5,2" d="M730.7691,-57.7617C710.6082,-54.9654 686.6168,-53.4626 665.1802,-57 649.9214,-59.518 633.6546,-64.5798 619.8307,-69.6472"/>
<path fill="none" stroke="#000000" stroke-width="1.5" stroke-dasharray="5,2" d="M731.0439,-55.7807C710.7332,-52.9693 686.7419,-51.4665 664.8546,-55.0267 649.3271,-57.6083 633.0603,-62.6702 619.1423,-67.7694"/>
<text text-anchor="middle" x="686.8512" y="-60" font-family="Helvetica,sans-Serif" font-size="10.00" fill="#000000">constraint</text>
</g>
<!-- &lt;&lt;output&gt;&gt;
%out&#45;&gt;&lt;&lt;expr&gt;&gt;
%mul6 -->
<g id="edge1" class="edge">
<title>&lt;&lt;output&gt;&gt;
%out-&gt;&lt;&lt;expr&gt;&gt;
%mul6</title>
<path fill="none" stroke="#006400" stroke-width="1.5" d="M821.7326,-57.8955C844.1869,-53.4283 871.4492,-48.0045 895.2106,-43.2772"/>
<polygon fill="#006400" stroke="#006400" stroke-width="1.5" points="907.2731,-40.8774 896.5575,-48.5152 901.4372,-42.2934 895.5525,-43.4642 895.5037,-43.219 895.455,-42.9738 901.3396,-41.803 894.45,-37.9228 907.2731,-40.8774 907.2731,-40.8774"/>
<text text-anchor="middle" x="857.8648" y="-55" font-family="Helvetica,sans-Serif" font-size="10.00" fill="#000000">assign</text>
</g>
<!-- &lt;&lt;inter&gt;&gt;
%inv&#45;&gt;&lt;&lt;expr&gt;&gt;
%add -->
<g id="edge7" class="edge">
<title>&lt;&lt;inter&gt;&gt;
%inv-&gt;&lt;&lt;expr&gt;&gt;
%add</title>
<path fill="none" stroke="#006400" stroke-width="1.5" d="M457.6044,-102.8202C478.0154,-99.819 502.9125,-96.1581 525.3041,-92.8657"/>
<polygon fill="#006400" stroke="#006400" stroke-width="1.5" points="537.4416,-91.081 526.3549,-98.1693 531.5418,-92.2012 525.6056,-93.0741 525.5693,-92.8267 525.5329,-92.5794 531.4691,-91.7065 524.7837,-87.4842 537.4416,-91.081 537.4416,-91.081"/>
<text text-anchor="middle" x="491.5682" y="-102" font-family="Helvetica,sans-Serif" font-size="10.00" fill="#000000">assign</text>
</g>
<!-- &lt;&lt;input&gt;&gt;
%in -->
<g id="node7" class="node">
<title>&lt;&lt;input&gt;&gt;
%in</title>
<ellipse fill="#b786c5" stroke="#8e6292" stroke-width="2" cx="45.1205" cy="-54" rx="45.2413" ry="22.7556"/>
<text text-anchor="middle" x="45.1205" y="-57" font-family="Helvetica,sans-Serif" font-size="10.00" fill="#ffffff">&lt;&lt;input&gt;&gt;</text>
<text text-anchor="middle" x="45.1205" y="-45" font-family="Helvetica,sans-Serif" font-size="10.00" fill="#ffffff">%in</text>
</g>
<!-- &lt;&lt;input&gt;&gt;
%in&#45;&gt;&lt;&lt;expr&gt;&gt;
%utils_switch -->
<g id="edge6" class="edge">
<title>&lt;&lt;input&gt;&gt;
%in-&gt;&lt;&lt;expr&gt;&gt;
%utils_switch</title>
<path fill="none" stroke="#006400" stroke-width="1.5" d="M83.2126,-66.2867C110.0497,-74.943 146.3906,-86.6649 176.3357,-96.3238"/>
<polygon fill="#006400" stroke="#006400" stroke-width="1.5" points="187.8855,-100.0492 174.8072,-101.5046 182.0985,-98.4452 176.3882,-96.6033 176.4649,-96.3653 176.5417,-96.1274 182.252,-97.9693 178.1226,-91.2261 187.8855,-100.0492 187.8855,-100.0492"/>
<text text-anchor="middle" x="122.689" y="-85" font-family="Helvetica,sans-Serif" font-size="10.00" fill="#000000">assign</text>
</g>
<!-- &lt;&lt;input&gt;&gt;
%in&#45;&gt;&lt;&lt;expr&gt;&gt;
%add -->
<g id="edge9" class="edge">
<title>&lt;&lt;input&gt;&gt;
%in-&gt;&lt;&lt;expr&gt;&gt;
%add</title>
<path fill="none" stroke="#006400" stroke-width="1.5" d="M90.2717,-56.5062C185.1534,-61.7727 405.6971,-74.0143 517.706,-80.2315"/>
<polygon fill="#006400" stroke="#006400" stroke-width="1.5" points="529.8328,-80.9047 517.5519,-85.6312 523.8281,-80.8217 517.8374,-80.4891 517.8512,-80.2395 517.8651,-79.9899 523.8559,-80.3225 518.1505,-74.8478 529.8328,-80.9047 529.8328,-80.9047"/>
<text text-anchor="middle" x="339.585" y="-74" font-family="Helvetica,sans-Serif" font-size="10.00" fill="#000000">assign</text>
</g>
<!-- &lt;&lt;input&gt;&gt;
%in&#45;&gt;&lt;&lt;expr&gt;&gt;
%mul6 -->
<g id="edge3" class="edge">
<title>&lt;&lt;input&gt;&gt;
%in-&gt;&lt;&lt;expr&gt;&gt;
%mul6</title>
<path fill="none" stroke="#006400" stroke-width="1.5" d="M83.1334,-41.5574C120.4064,-30.475 179.0578,-16 231.137,-16 231.137,-16 231.137,-16 775.9695,-16 814.346,-16 857.2387,-19.8228 891.0634,-23.7312"/>
<polygon fill="#006400" stroke="#006400" stroke-width="1.5" points="903.0897,-25.1681 890.5338,-29.1063 897.1024,-24.7045 891.1448,-23.9927 891.1744,-23.7444 891.2041,-23.4962 897.1617,-24.2081 891.8151,-18.3826 903.0897,-25.1681 903.0897,-25.1681"/>
<text text-anchor="middle" x="491.5682" y="-19" font-family="Helvetica,sans-Serif" font-size="10.00" fill="#000000">assign</text>
</g>
</g>
</svg>